<svg xmlns="http://www.w3.org/2000/svg" viewBox="0 0 1024 1024">
  <rect width="1024" height="1024" rx="224" fill="#0f172a"/>
  <path fill="#fff" d="M296 200h496c40 0 58 47 31 76L392 728h360c40 0 58 47 31 76l-56 58c-16 17-36 25-59 25H176c-40 0-58-47-31-76l431-452H216c-40 0-58-47-31-76l56-58c16-17 36-25 55-25Z"/>
  <path fill="#fff" fill-opacity=".38" d="M576 359h216c40 0 58-47 31-76l-56-58c-16-17-36-25-59-25H504L392 359h184ZM448 728H232c-40 0-58 47-31 76l56 58c16 17 36 25 59 25h204l112-159H448Z"/>
</svg>
